<svg width="30" height="30" viewBox="0 0 30 30" fill="currentColor" xmlns="http://www.w3.org/2000/svg">
<path fill-rule="evenodd" clip-rule="evenodd" d="M15 6.71429C10.4239 6.71429 6.71429 10.4239 6.71429 15C6.71429 19.5761 10.4239 23.2857 15 23.2857C19.5761 23.2857 23.2857 19.5761 23.2857 15C23.2857 10.4239 19.5761 6.71429 15 6.71429ZM5 15C5 9.47715 9.47715 5 15 5C20.5228 5 25 9.47715 25 15C25 20.5228 20.5228 25 15 25C9.47715 25 5 20.5228 5 15Z"/>
<path fill-rule="evenodd" clip-rule="evenodd" d="M20.4101 14.9387C20.4101 15.415 20.024 15.8012 19.5476 15.8012L9.48524 15.8015L9.48528 14.0765L19.5477 14.0762C20.024 14.0762 20.4101 14.4623 20.4101 14.9387Z"/>
<path fill-rule="evenodd" clip-rule="evenodd" d="M14.0719 20.4101L14.0714 10.3477C14.0714 9.87131 14.4575 9.48517 14.9339 9.48519C15.4102 9.48522 15.7964 9.87139 15.7964 10.3477L15.7969 20.4102L14.0719 20.4101Z"/>
</svg>
