<svg width="30" height="30" viewBox="0 0 30 30" fill="currentColor" xmlns="http://www.w3.org/2000/svg">
<path d="M8.98373 14.3289C8.98285 14.3464 8.98215 14.3614 8.98163 14.3706C8.98198 14.3621 8.98268 14.3473 8.98373 14.3289ZM8.98373 14.3289C8.98583 14.2856 8.98898 14.2226 8.99213 14.1612C8.9881 14.2411 8.98548 14.2937 8.98373 14.3289ZM13.8 12.0001L12.6001 11C12.6001 11 9.13352 11.3262 9 14V18.0001H13.8V14.0002H11.4001C11.4187 12.2099 13.8 12.0001 13.8 12.0001ZM16.2001 14.0002C16.2001 14.0002 16.1993 14.0187 16.1979 14.0457C16.1984 14.0324 16.1993 14.0181 16.2001 14.0002ZM22.2 5H7.80004C5.14898 5 3 6.79096 3 9.00003V21C3 23.2092 5.14898 25 7.80004 25H22.2C24.851 25 27 23.2092 27 21V9.00003C27 6.79096 24.851 5 22.2 5V5ZM24.6001 20C24.6001 21.6568 22.9883 22.9999 21.0002 22.9999H9C7.01167 22.9999 5.39993 21.6567 5.39993 20V10C5.39993 8.3432 7.01167 6.99994 9 6.99994H21C22.9882 6.99994 24.5999 8.3432 24.5999 10V20H24.6001ZM16.19 14.2058C16.1849 14.3083 16.1823 14.3597 16.1814 14.376C16.1826 14.3537 16.1861 14.2819 16.19 14.2058ZM21.0002 12.0001L19.8002 11C19.8002 11 16.3337 11.3262 16.2001 14V18.0001H21.0002V14.0002H18.6002C18.6188 12.2099 21.0002 12.0001 21.0002 12.0001Z"/>
</svg>
