<svg width="30" height="30" viewBox="0 0 30 30" fill="currentColor" xmlns="http://www.w3.org/2000/svg">
<path d="M9 23V7H14.5294C16.6314 7 18.1529 7.36571 19.0941 8.09714C20.051 8.82857 20.5294 9.91048 20.5294 11.3429C20.5294 12.8514 19.8235 13.9638 18.4118 14.68C20.1373 15.3657 21 16.6 21 18.3829C21 19.9371 20.5294 21.0952 19.5882 21.8571C18.6471 22.619 17.1176 23 15 23H9ZM15 15.8914H11.8235V20.6686H15C16.098 20.6686 16.8745 20.4781 17.3294 20.0971C17.8 19.7162 18.0353 19.1067 18.0353 18.2686C18.0353 17.4457 17.8 16.8438 17.3294 16.4629C16.8745 16.0819 16.098 15.8914 15 15.8914ZM14.5294 9.33143H11.8235V13.6514H14.5294C15.6118 13.6514 16.3882 13.4762 16.8588 13.1257C17.3294 12.76 17.5647 12.2114 17.5647 11.48C17.5647 10.7638 17.3294 10.2305 16.8588 9.88C16.3882 9.51429 15.6118 9.33143 14.5294 9.33143Z"/>
</svg>
