<svg width="30" height="30" viewBox="0 0 30 30" fill="currentColor" xmlns="http://www.w3.org/2000/svg">
    <path fill-rule="evenodd" clip-rule="evenodd" d="M15 6.71429C10.4239 6.71429 6.71429 10.4239 6.71429 15C6.71429 19.5761 10.4239 23.2857 15 23.2857C19.5761 23.2857 23.2857 19.5761 23.2857 15C23.2857 10.4239 19.5761 6.71429 15 6.71429ZM5 15C5 9.47715 9.47715 5 15 5C20.5228 5 25 9.47715 25 15C25 20.5228 20.5228 25 15 25C9.47715 25 5 20.5228 5 15Z"/>
    <path fill-rule="evenodd" clip-rule="evenodd" d="M18.8159 18.8032C18.4791 19.14 17.9329 19.14 17.5961 18.8032L10.4807 11.6882L11.7005 10.4685L18.8159 17.5835C19.1527 17.9203 19.1527 18.4664 18.8159 18.8032Z"/>
    <path fill-rule="evenodd" clip-rule="evenodd" d="M10.4678 18.1923L17.5827 11.0768C17.9195 10.7399 18.4656 10.7399 18.8024 11.0768C19.1392 11.4136 19.1392 11.9597 18.8024 12.2966L11.6875 19.4121L10.4678 18.1923Z"/>
</svg>
