<svg width="30" height="30" viewBox="0 0 16 17" fill="currentColor" xmlns="http://www.w3.org/2000/svg">
<path fill-rule="evenodd" clip-rule="evenodd" d="M8 2.7C4.79675 2.7 2.2 5.29675 2.2 8.5C2.2 11.7033 4.79675 14.3 8 14.3C11.2033 14.3 13.8 11.7033 13.8 8.5C13.8 5.29675 11.2033 2.7 8 2.7ZM1 8.5C1 4.63401 4.13401 1.5 8 1.5C11.866 1.5 15 4.63401 15 8.5C15 12.366 11.866 15.5 8 15.5C4.13401 15.5 1 12.366 1 8.5Z"/>
<path fill-rule="evenodd" clip-rule="evenodd" d="M10.687 5.81298C10.9213 6.0473 10.9213 6.4272 10.687 6.66151L8.84853 8.49999L10.687 10.3385C10.9213 10.5728 10.9213 10.9527 10.687 11.187C10.4527 11.4213 10.0728 11.4213 9.83848 11.187L8 9.34852L5.73726 11.6113L4.88873 10.7627L7.15147 8.49999L4.88873 6.23725L5.73726 5.38872L8 7.65146L9.83848 5.81298C10.0728 5.57867 10.4527 5.57867 10.687 5.81298Z"/>
</svg>
