<svg width="20" height="20" viewBox="0 0 20 20" fill="currentColor" xmlns="http://www.w3.org/2000/svg">
<path fill-rule="evenodd" clip-rule="evenodd" d="M2.25 17.25H17C17.4142 17.25 17.75 17.5858 17.75 18C17.75 18.4142 17.4142 18.75 17 18.75H2.25V17.25Z"/>
<path fill-rule="evenodd" clip-rule="evenodd" d="M11.7626 2.17663C12.446 1.49321 13.554 1.49321 14.2374 2.17663L17.0607 4.99985L7.82322 14.2373C7.49503 14.5655 7.04992 14.7498 6.58579 14.7498H3.25V11.4141C3.25 10.9499 3.43437 10.5048 3.76256 10.1766L11.7626 2.17663ZM13.1768 3.23729C13.0791 3.13965 12.9209 3.13966 12.8232 3.23729L11.5607 4.49985L13.5 6.43919L14.9393 4.99985L13.1768 3.23729ZM12.4393 7.49985L10.5 5.56051L4.82322 11.2373C4.77634 11.2842 4.75 11.3478 4.75 11.4141V13.2498H6.58579C6.65209 13.2498 6.71568 13.2235 6.76256 13.1766L12.4393 7.49985Z"/>
</svg>
