<svg width="30" height="30" viewBox="0 0 30 30" fill="currentColor" xmlns="http://www.w3.org/2000/svg">
<path fill-rule="evenodd" clip-rule="evenodd" d="M24.7059 21.3092V10.5458C24.7059 9.80275 24.1265 9.20038 23.4118 9.20038H20.6458C20.1803 9.20038 19.7185 9.11333 19.2826 8.94339L15.4036 7.43108C15.126 7.32288 14.8212 7.31701 14.5399 7.41446L9.98417 8.99326C9.5883 9.13044 9.17374 9.20038 8.75646 9.20038H6.58824C5.87351 9.20038 5.29412 9.80275 5.29412 10.5458V21.3092C5.29412 22.0522 5.87351 22.6546 6.58824 22.6546H23.4118C24.1265 22.6546 24.7059 22.0522 24.7059 21.3092ZM6.58824 7.85496C5.15879 7.85496 4 9.05969 4 10.5458V21.3092C4 22.7953 5.15879 24 6.58824 24H23.4118C24.8412 24 26 22.7953 26 21.3092V10.5458C26 9.05969 24.8412 7.85496 23.4118 7.85496H20.6458C20.3354 7.85496 20.0276 7.79693 19.737 7.68364L15.858 6.17133C15.3029 5.95491 14.6931 5.94318 14.1307 6.13808L9.57493 7.71688C9.31102 7.80834 9.03465 7.85496 8.75646 7.85496H6.58824Z"/>
<path fill-rule="evenodd" clip-rule="evenodd" d="M14.9982 19.2913C16.785 19.2913 18.2335 17.7854 18.2335 15.9277C18.2335 14.0701 16.785 12.5642 14.9982 12.5642C13.2114 12.5642 11.7629 14.0701 11.7629 15.9277C11.7629 17.7854 13.2114 19.2913 14.9982 19.2913ZM14.9982 20.6367C17.4997 20.6367 19.5276 18.5284 19.5276 15.9277C19.5276 13.327 17.4997 11.2188 14.9982 11.2188C12.4966 11.2188 10.4688 13.327 10.4688 15.9277C10.4688 18.5284 12.4966 20.6367 14.9982 20.6367Z"/>
</svg>
