<svg width="30" height="30" viewBox="0 0 30 30" fill="currentColor" xmlns="http://www.w3.org/2000/svg">
<path d="M23.6267 6.37297C21.7961 4.54235 18.8282 4.54235 16.9976 6.37293L13.0798 10.2907C11.1863 12.1843 11.3616 15.2015 13.0798 16.9198C13.3676 17.2075 13.6859 17.4422 14.0221 17.6348L14.7371 16.9198C15.2061 16.4507 15.041 15.9024 15.0326 15.5068C14.9297 15.4338 14.8296 15.3549 14.7371 15.2625C13.8554 14.3808 13.8157 12.8693 14.7371 11.9479C14.874 11.8111 18.5717 8.11332 18.6548 8.03028C19.5688 7.11625 21.0553 7.11625 21.9694 8.03028C22.8834 8.9443 22.8834 10.4308 21.9694 11.3448L19.3798 13.9344C19.4547 14.3488 19.9041 15.3302 19.6729 16.9493C19.6842 16.9382 19.6977 16.9311 19.709 16.9198L23.6267 13.0021C25.4572 11.1715 25.4572 8.2036 23.6267 6.37297Z"/>
<path d="M17.2233 12.7766C16.9356 12.4888 16.6172 12.2542 16.2812 12.0615L15.5661 12.7766C15.0971 13.2455 15.2621 13.7939 15.2706 14.1895C15.3736 14.2625 15.4737 14.3414 15.5661 14.4338C16.4479 15.3155 16.4875 16.827 15.5661 17.7484C15.429 17.8855 11.4249 21.8896 11.3448 21.9697C10.4308 22.8837 8.94424 22.8837 8.03021 21.9697C7.11619 21.0557 7.11619 19.5691 8.03021 18.6551L10.9235 15.7619C10.8486 15.3475 10.3991 14.3661 10.6303 12.747C10.619 12.7581 10.6054 12.7653 10.5942 12.7765L6.37291 16.9979C4.54236 18.8285 4.54236 21.7964 6.37291 23.627C8.20354 25.4576 11.1714 25.4576 13.002 23.627L17.2233 19.4057C19.0818 17.5473 18.9802 14.5334 17.2233 12.7766Z"/>
</svg>
