<svg width="30" height="30" viewBox="0 0 30 30" fill="currentColor" xmlns="http://www.w3.org/2000/svg">
<rect x="11.2676" y="8.23877" width="14.7325" height="2.23881" rx="1"/>
<rect x="11.2676" y="19.6816" width="14.7325" height="2.23881" rx="1"/>
<path d="M4.58008 23.0001V22.1521L6.38808 20.4161C6.75075 20.0695 6.99874 19.8001 7.13208 19.6081C7.26541 19.4161 7.33208 19.2268 7.33208 19.0401C7.33208 18.7948 7.25208 18.5975 7.09208 18.4481C6.93741 18.2988 6.72674 18.2241 6.46008 18.2241C6.18808 18.2241 5.97474 18.3041 5.82008 18.4641C5.66541 18.6188 5.58808 18.8375 5.58808 19.1201H4.58008C4.58008 18.5708 4.74808 18.1361 5.08408 17.8161C5.42008 17.4908 5.87874 17.3281 6.46008 17.3281C7.04141 17.3281 7.50008 17.4855 7.83608 17.8001C8.17208 18.1148 8.34008 18.5281 8.34008 19.0401C8.34008 19.3495 8.24141 19.6535 8.04408 19.9521C7.85208 20.2508 7.53474 20.6028 7.09208 21.0081L5.83608 22.1521H8.34008V23.0001H4.58008Z"/>
<path d="M5.18164 8.1359V7.1519L6.30164 6.3999H7.26164V11.9999H6.30164V7.3919L5.18164 8.1359Z"/>
</svg>
