<svg width="30" height="30" viewBox="0 0 20 20" fill="currentColor" xmlns="http://www.w3.org/2000/svg">
<path d="M10 2.5C6.8042 2.5 4.13574 4.4751 3.04688 7.26562L4.19922 7.73438C5.10986 5.40039 7.31934 3.75 10 3.75C12.0264 3.75 13.833 4.74365 14.9609 6.25H12.5V7.5H16.875V3.125H15.625V5.05859C14.2554 3.48877 12.2314 2.5 10 2.5ZM15.8008 12.2656C14.8901 14.5996 12.6807 16.25 10 16.25C7.95166 16.25 6.15234 15.2417 5.01953 13.75H7.5V12.5H3.125V16.875H4.375V14.9414C5.74219 16.4917 7.74658 17.5 10 17.5C13.1958 17.5 15.8643 15.5249 16.9531 12.7344L15.8008 12.2656Z"/>
</svg>
